<!-- icon666.com - MILLIONS OF FREE VECTOR ICONS --><svg version="1.1" id="Layer_1" xmlns="http://www.w3.org/2000/svg" xmlns:xlink="http://www.w3.org/1999/xlink" x="0px" y="0px" viewBox="0 0 512 512" style="enable-background:new 0 0 512 512;" xml:space="preserve"><g><g><path d="M502.141,115.353c-5.542-0.059-10.065,4.334-10.144,9.858l-0.002,0.212c-0.075,5.521,4.338,10.06,9.859,10.138 c0.048,0,0.096,0.001,0.145,0.001c5.457,0,9.92-4.385,9.998-9.86l0.002-0.205C512.078,119.972,507.664,115.432,502.141,115.353z"></path></g></g><g><g><path d="M496.066,148.071c-3.295-4.434-9.559-5.358-13.993-2.061c-9.692,7.203-23.452,6.181-32.008-2.376 c-4.643-4.642-7.199-10.814-7.199-17.378s2.556-12.736,7.196-17.378c8.522-8.519,21.815-9.641,31.606-2.667 c4.502,3.205,10.745,2.154,13.948-2.345c3.205-4.5,2.154-10.745-2.345-13.948c-17.78-12.662-41.9-10.636-57.353,4.817 c-6.026,6.026-10.102,13.479-11.939,21.592H10.002C4.479,116.326,0,120.803,0,126.327v202.676 C0,384.9,45.476,430.374,101.372,430.374h275.331c55.897,0,101.371-45.475,101.371-101.371V169.512 c5.637-1.36,11.065-3.833,15.93-7.448C498.437,158.769,499.359,152.503,496.066,148.071z M336.18,206.337l54.37-64.51 l54.254,64.56h-0.758c-0.313-0.029-0.627-0.05-0.945-0.05H336.18z M418.905,226.39l-79.891,79.891V226.39H418.905z M369.025,136.329l-54.339,64.472l-54.115-64.472H369.025z M319.011,240.485v76.9l-60.617-16.284L319.011,240.485z M217.562,136.329l-54.286,64.451l-54.162-64.451H217.562z M219.758,301.093l-60.651,16.293v-76.943L219.758,301.093z M141.818,206.337H35.06c-0.318,0-0.632,0.02-0.944,0.05h-0.842l54.337-64.554L141.818,206.337z M139.105,226.39v79.848 L59.256,226.39H139.105z M20.003,136.329h46.094l-46.094,54.763V136.329z M101.372,410.371c-44.867,0-81.369-36.502-81.369-81.369 V226.39h10.964l110.711,110.711c0.24,0.267,0.494,0.522,0.764,0.764l72.505,72.505H101.372z M229.036,396.169l-60.582-60.582 l60.582-16.275V396.169z M173.344,226.39h35.409c5.523,0,10.002-4.478,10.002-10.002s-4.479-10.002-10.002-10.002h-24.05 l54.37-64.552l54.182,64.552h-20.852c-5.523,0-10.002,4.478-10.002,10.002s4.481,10.002,10.004,10.002h32.409l-65.736,65.735 L173.344,226.39z M249.039,319.301l60.659,16.295l-60.659,60.66V319.301z M458.072,329.002c0,44.867-36.502,81.369-81.368,81.369 H263.213L447.195,226.39h10.877V329.002z M458.072,191.084l-46.014-54.755h11.955c1.853,8.058,5.917,15.457,11.908,21.448 c6.224,6.224,13.971,10.236,22.151,11.981V191.084z"></path></g></g><g><g><path d="M239.14,206.389h-0.204c-5.523,0-10.002,4.478-10.002,10.002s4.479,10.002,10.002,10.002h0.204 c5.523,0,10.002-4.478,10.002-10.002S244.663,206.389,239.14,206.389z"></path></g></g><g><g><path d="M424.012,280.477c-3.923-3.889-10.255-3.863-14.144,0.06l-0.115,0.116c-3.89,3.922-3.863,10.255,0.06,14.144 c1.95,1.934,4.496,2.899,7.042,2.899c2.573,0,5.147-0.987,7.102-2.959l0.115-0.116C427.962,290.7,427.935,284.367,424.012,280.477 z"></path></g></g><g><g><path d="M402.393,302.154c-3.904-3.905-10.237-3.906-14.144,0l-77.036,77.036c-3.906,3.906-3.906,10.239,0,14.144 c1.953,1.953,4.513,2.929,7.072,2.929s5.12-0.977,7.072-2.929l77.036-77.036C406.299,312.392,406.299,306.059,402.393,302.154z"></path></g></g><g><g><path d="M66.846,280.623l-0.115-0.116c-3.907-3.906-10.238-3.906-14.145,0c-3.906,3.906-3.906,10.239,0,14.145l0.116,0.116 c1.953,1.953,4.513,2.929,7.072,2.929s5.119-0.976,7.072-2.929C70.752,290.863,70.752,284.53,66.846,280.623z"></path></g></g><g><g><path d="M165.417,379.19l-77.036-77.036c-3.907-3.906-10.238-3.906-14.145,0c-3.906,3.906-3.906,10.239,0,14.144l77.036,77.036 c1.953,1.953,4.513,2.929,7.072,2.929s5.119-0.977,7.072-2.929C169.322,389.428,169.322,383.095,165.417,379.19z"></path></g></g><g><g><path d="M94.882,173.956c-3.917-3.895-10.249-3.877-14.144,0.041l-0.086,0.086c-3.896,3.917-3.878,10.25,0.04,14.144 c1.952,1.939,4.503,2.908,7.052,2.908c2.568,0,5.138-0.984,7.092-2.949l0.086-0.086C98.817,184.183,98.799,177.85,94.882,173.956z "></path></g></g><g><g><path d="M246.173,173.996c-3.896-3.917-10.23-3.935-14.144-0.04l-0.087,0.086c-3.918,3.895-3.936,10.228-0.04,14.144 c1.954,1.966,4.524,2.949,7.092,2.949c2.55,0,5.102-0.969,7.052-2.909l0.087-0.086 C250.051,184.245,250.069,177.912,246.173,173.996z"></path></g></g><g><g><path d="M397.384,173.956c-3.918-3.896-10.25-3.878-14.144,0.04l-0.086,0.086c-3.896,3.917-3.878,10.25,0.04,14.144 c1.951,1.94,4.502,2.909,7.052,2.909c2.568,0,5.138-0.984,7.092-2.949l0.086-0.086C401.32,184.183,401.302,177.85,397.384,173.956 z"></path></g></g><g><g><path d="M167.969,148.229c-3.918-3.895-10.25-3.877-14.144,0.041l-0.086,0.086c-3.896,3.916-3.878,10.249,0.04,14.143 c1.951,1.94,4.502,2.909,7.052,2.909c2.568,0,5.138-0.984,7.092-2.949l0.086-0.086 C171.905,158.456,171.887,152.123,167.969,148.229z"></path></g></g><g><g><path d="M321.124,148.228c-3.917-3.895-10.249-3.877-14.144,0.041l-0.086,0.086c-3.896,3.917-3.878,10.25,0.04,14.144 c1.951,1.94,4.502,2.909,7.052,2.909c2.568,0,5.138-0.984,7.092-2.949l0.086-0.086 C325.06,158.455,325.042,152.123,321.124,148.228z"></path></g></g></svg>