<!-- icon666.com - MILLIONS OF FREE VECTOR ICONS --><svg viewBox="0 0 56 20" xmlns="http://www.w3.org/2000/svg"><g id="Page-1" fill="none" fill-rule="evenodd"><g id="006---Belt" fill="rgb(0,0,0)" fill-rule="nonzero"><path id="Shape" d="m25 10c0 .5522847.4477153 1 1 1h14v-2h-14c-.5522847 0-1 .44771525-1 1z"></path><path id="Shape" d="m26 7h10v-3h-16v12h16v-3h-10c-1.6568542 0-3-1.3431458-3-3 0-1.65685425 1.3431458-3 3-3z"></path><path id="Shape" d="m0 5v10c0 .5522847.44771525 1 1 1h13v-12h-13c-.55228475 0-1 .44771525-1 1zm11 4c.5522847 0 1 .44771525 1 1 0 .5522847-.4477153 1-1 1s-1-.4477153-1-1c0-.55228475.4477153-1 1-1zm-4 0c.55228475 0 1 .44771525 1 1 0 .5522847-.44771525 1-1 1s-1-.4477153-1-1c0-.55228475.44771525-1 1-1zm-4 0c.55228475 0 1 .44771525 1 1 0 .5522847-.44771525 1-1 1s-1-.4477153-1-1c0-.55228475.44771525-1 1-1z"></path><path id="Shape" d="m55 4h-13v12h13c.5522847 0 1-.4477153 1-1v-10c0-.55228475-.4477153-1-1-1z"></path><path id="Shape" d="m39 0h-22c-.5522847 0-1 .44771525-1 1v18c0 .5522847.4477153 1 1 1h22c.5522847 0 1-.4477153 1-1v-6h-2v4c0 .5522847-.4477153 1-1 1h-18c-.5522847 0-1-.4477153-1-1v-14c0-.55228475.4477153-1 1-1h18c.5522847 0 1 .44771525 1 1v4h2v-6c0-.55228475-.4477153-1-1-1z"></path></g></g></svg>