<!-- icon666.com - MILLIONS OF FREE VECTOR ICONS --><svg viewBox="0 0 24 24" xmlns="http://www.w3.org/2000/svg"><g id="flder-open" fill="none" fill-rule="evenodd"><path id="Shape" d="m3.5 19c-.77942812 0-1.42041715-.5951403-1.49313064-1.3555845l-.00686936-.1444155v-13c0-.77942812.59514032-1.42041715 1.3555845-1.49313064l.1444155-.00686936h4.882c.81599475 0 1.56644595.43022438 1.9813857 1.12356268l.0836819.15253885c.2020954.4035324.5948704.67163273 1.0369656.71704326l.1339668.00685521h5.882c.7794281 0 1.4204171.59514032 1.4931306 1.3555845l.0068694.1444155v1.5h.2803c.9015817 0 1.5881171.78534624 1.4908327 1.66196713l-.0205424.13209094-1.5998794 7.99939533c-.1301359.6548776-.6754657 1.1383532-1.3288565 1.199906l-.1415544.0066406zm15.7803-10h-13.96c-.20914652 0-.39238092.12865218-.46607624.31759206l-.02463342.08446601-1.60003049 8.00015233c-.0562883.2809876.13426358.5451296.40596194.5908333l.08377821.0069563h13.961c.2083361 0 .3914237-.1287074.4650853-.3176128l.0246244-.0844453 1.6000304-8.00015227c.0563631-.28136064-.1337695-.5451975-.405829-.59084254zm-10.8983-5h-4.882c-.24520678 0-.44955212.17710015-.49193496.41019936l-.00806504.08980064v8.948l.84888912-4.24145344c.13017619-.65508018.67566347-1.13838014 1.32970855-1.19990867l.14170233-.00663789h12.6797v-1.5c0-.24520678-.1771001-.44955212-.4101994-.49193496l-.0898006-.00806504h-5.882c-.8159947 0-1.566446-.43022438-1.98138573-1.12356268l-.08368191-.15253885c-.20209534-.4035324-.59487034-.67163273-1.03696555-.71704326z" fill="rgb(0,0,0)" fill-rule="nonzero" style="fill: rgb(255, 255, 255);"></path></g></svg>