<!-- icon666.com - MILLIONS OF FREE VECTOR ICONS --><svg version="1.1" id="Capa_1" xmlns="http://www.w3.org/2000/svg" xmlns:xlink="http://www.w3.org/1999/xlink" x="0px" y="0px" viewBox="0 0 440.083 440.083" style="enable-background:new 0 0 440.083 440.083;" xml:space="preserve"><g><path d="M149.743,161.967c-64.652,0-117.25,52.598-117.25,117.25s52.598,117.25,117.25,117.25s117.25-52.598,117.25-117.25 S214.396,161.967,149.743,161.967z M149.743,172.366c24.058,0,43.63,19.573,43.63,43.631s-19.572,43.63-43.63,43.63 c-24.059,0-43.631-19.572-43.631-43.63S125.685,172.366,149.743,172.366z M100.061,195.833c-2.538,6.23-3.948,13.034-3.948,20.165 c0,29.572,24.059,53.63,53.631,53.63c29.571,0,53.63-24.059,53.63-53.63c0-7.132-1.411-13.937-3.949-20.167 c8.993,11.034,14.397,25.103,14.397,40.414c0,35.333-28.745,64.078-64.078,64.078s-64.078-28.745-64.078-64.078 C85.665,220.934,91.069,206.866,100.061,195.833z M84.639,200.93c-5.72,10.504-8.974,22.536-8.974,35.315 c0,40.847,33.231,74.078,74.078,74.078s74.078-33.231,74.078-74.078c0-12.778-3.253-24.81-8.973-35.313 c14.332,15.688,23.087,36.554,23.087,59.428c0,48.629-39.563,88.192-88.192,88.192S61.55,308.989,61.55,260.359 C61.55,237.485,70.305,216.618,84.639,200.93z M149.743,386.467c-59.138,0-107.25-48.112-107.25-107.25 c0-21.607,6.428-41.738,17.465-58.592c-5.4,12.155-8.408,25.599-8.408,39.735c0,54.144,44.05,98.192,98.193,98.192 s98.192-44.049,98.192-98.192c0-14.137-3.008-27.582-8.409-39.738c11.038,16.855,17.467,36.987,17.467,58.595 C256.993,338.354,208.881,386.467,149.743,386.467z"></path><path d="M307.795,78.674c2.537-3.529,4.043-7.845,4.043-12.513c0-10.131-7.052-18.625-16.5-20.888v-12.11c0-2.761-2.238-5-5-5 h-10.499c-4.272,0-7.749-3.477-7.749-7.75s3.477-7.75,7.749-7.75h27.749c2.762,0,5-2.239,5-5s-2.238-5-5-5h-27.749 c-9.787,0-17.749,7.962-17.749,17.75s7.962,17.75,17.749,17.75h5.499v7.11c-9.447,2.263-16.499,10.758-16.499,20.888 c0,4.675,1.508,9,4.052,12.532c-41.18,4.842-78.852,26.658-103.57,60.526c-0.703-0.092-1.405-0.189-2.111-0.271 c2.534-3.528,4.032-7.847,4.032-12.513c0-10.131-7.052-18.625-16.499-20.888v-12.11c0-2.761-2.238-5-5-5h-10.5 c-4.272,0-7.749-3.476-7.749-7.749s3.477-7.75,7.749-7.75h27.749c2.762,0,5-2.239,5-5s-2.238-5-5-5h-27.749 c-9.787,0-17.749,7.962-17.749,17.75c0,9.787,7.962,17.749,17.749,17.749h5.5v7.11c-9.447,2.263-16.499,10.758-16.499,20.888 c0,4.67,1.508,8.989,4.047,12.519C57.916,147.626,0,211.011,0,287.677c0,82.568,67.175,149.743,149.743,149.743 c49.631,0,93.691-24.277,120.952-61.572c6.48,0.847,13.067,1.302,19.638,1.302c82.572,0,149.75-67.178,149.75-149.75 C440.083,150.738,382.171,87.35,307.795,78.674z M285.338,55.822v10.339c0,2.761,2.238,5,5,5s5-2.239,5-5V55.821 c3.84,1.865,6.5,5.792,6.5,10.339c0,6.341-5.159,11.5-11.5,11.5s-11.499-5.159-11.499-11.5 C278.839,61.613,281.499,57.686,285.338,55.822z M144.743,116.095v10.339c0,2.761,2.238,5,5,5s5-2.239,5-5v-10.339 c3.839,1.865,6.499,5.792,6.499,10.339c0,6.341-5.158,11.499-11.499,11.499s-11.499-5.158-11.499-11.499 C138.244,121.887,140.904,117.96,144.743,116.095z M149.743,427.419C72.688,427.419,10,364.731,10,287.677 c0-77.055,62.688-139.743,139.743-139.743c77.054,0,139.742,62.688,139.742,139.743 C289.485,364.731,226.797,427.419,149.743,427.419z M294.653,249.914c38.844-2.246,69.76-34.548,69.76-73.944 c0-12.576-3.147-24.698-9.031-35.463c14.395,15.723,23.151,36.656,23.151,59.583c0,45.596-34.313,83.13-79.049,87.702 c0-0.038,0.001-0.076,0.001-0.115C299.485,274.636,297.8,261.983,294.653,249.914z M225.276,140.591 c-2.506,4.6-4.529,9.458-6.011,14.493c-1.204-0.634-2.418-1.253-3.641-1.855C218.473,148.699,221.71,144.477,225.276,140.591z M240.527,135.692c-2.506,6.261-3.824,13-3.824,19.928c0,3.754,0.385,7.448,1.135,11.044c-3.114-2.273-6.32-4.425-9.608-6.458 C230.501,151.258,234.725,142.876,240.527,135.692z M255.203,181.482c-5.559-7.532-8.5-16.466-8.5-25.863 c0-23.773,18.591-42.917,42.337-43.61c0.093,0.001,2.5-0.001,2.591,0c23.749,0.691,42.343,19.836,42.343,43.61 c0,24.058-19.577,43.63-43.641,43.63c-10.231,0-20.156-3.609-27.983-10.161C260.055,186.471,257.672,183.934,255.203,181.482z M290.333,209.25c29.577,0,53.641-24.058,53.641-53.63c0-6.945-1.324-13.701-3.842-19.975 c9.243,11.383,14.282,25.493,14.282,40.325c0,34.875-28.01,63.313-62.713,64.045c-3.905-11.599-9.187-22.57-15.662-32.71 C280.662,208.584,285.469,209.25,290.333,209.25z M299.13,297.883c23.598-2.091,45.479-12.559,62.024-29.779 c17.655-18.375,27.379-42.53,27.379-68.014c0-14.299-3.06-27.904-8.563-40.186c11.457,17.359,17.613,37.7,17.613,58.935 c0,57.74-45.866,104.96-103.076,107.161C296.909,316.934,298.478,307.532,299.13,297.883z M290.333,367.149 c-4.449,0-8.905-0.235-13.327-0.652c5.899-9.49,10.771-19.68,14.449-30.422c64.136-0.606,116.128-52.959,116.128-117.236 c0-30.856-11.887-59.987-33.47-82.028c-21.505-21.96-50.231-34.448-80.914-35.176c-0.103-0.008-5.469-0.016-5.506-0.015 c-35.159,0.777-67.51,16.922-89.287,44.43c-5.836-2.011-11.837-3.663-17.973-4.946c26.424-33.602,66.935-53.445,109.899-53.445 c77.059,0,139.75,62.687,139.75,139.74C430.083,304.458,367.392,367.149,290.333,367.149z"></path></g></svg>