<!-- icon666.com - MILLIONS OF FREE VECTOR ICONS --><svg id="Glyph" viewBox="0 0 64 64" xmlns="http://www.w3.org/2000/svg"><path d="m59 22.06152h-3.22821a7.23956 7.23956 0 0 0 -4.22179-1.35152h-39.53a7.23961 7.23961 0 0 0 -4.2218 1.35156h-2.7982a1.00012 1.00012 0 0 0 .00006 2h.86908a7.24072 7.24072 0 0 0 -1.17914 3.97844v6.5a8.7596 8.7596 0 0 0 8.75 8.75h3.43c6.31-.48 10.62-5.27 12.62-8.08a8.04329 8.04329 0 0 0 1.36994-5.18 9.188 9.188 0 0 0 -.27173-2.246 5.02284 5.02284 0 0 1 2.3916.027 11.04226 11.04226 0 0 0 -.26975 3.009c-.18017 4.95011 7.16685 12.0311 14.06987 12.47006l3.35007-.00006a8.75317 8.75317 0 0 0 8.75-8.75v-6.5a7.24071 7.24071 0 0 0 -1.17913-3.97846h1.29913a1.00013 1.00013 0 0 0 0-2.00002zm-29.10718 3.835a9.40079 9.40079 0 0 0 -2.59282-3.18652h8.97a9.20607 9.20607 0 0 0 -2.605 3.22162 7.09585 7.09585 0 0 0 -3.77218-.03514z" fill="rgb(0,0,0)"></path></svg>