<!-- icon666.com - MILLIONS OF FREE VECTOR ICONS --><svg id="Layer_1" enable-background="new 0 0 512.001 512.001" viewBox="0 0 512.001 512.001" xmlns="http://www.w3.org/2000/svg"><g><path d="m83.904 199.804c-14.406 0-26.577 12.171-26.577 26.577v218.881c0 14.406 12.171 26.577 26.577 26.577h344.194c14.405 0 26.576-12.171 26.576-26.577v-218.881c0-14.406-12.171-26.577-26.576-26.577zm355.77 26.577v218.881c0 6.167-5.409 11.577-11.576 11.577h-344.194c-6.167 0-11.577-5.41-11.577-11.577v-218.881c0-6.167 5.41-11.577 11.577-11.577h344.194c6.167 0 11.576 5.41 11.576 11.577z"></path><path d="m256 271.05c-67.826 0-120.957 28.451-120.957 64.772 0 34.256 46.141 59.637 102.873 64.071 4.133.326 7.738-2.764 8.062-6.893.322-4.129-2.764-7.739-6.894-8.062-49.93-3.903-89.041-25.477-89.041-49.117 0-25.209 45.166-49.772 105.957-49.772 60.218 0 105.957 24.295 105.957 49.772 0 23.64-39.111 45.214-89.041 49.117-4.13.323-7.216 3.932-6.894 8.062.324 4.141 3.946 7.217 8.062 6.893 54.214-4.237 102.873-28.571 102.873-64.071.001-36.321-53.13-64.772-120.957-64.772z"></path><path d="m428.097 159.643h-87.931c.578-1.919.897-3.95.897-6.055 0-11.609-9.445-21.054-21.055-21.054h-6.76v-15.937c5.426-3.812 8.988-10.107 8.988-17.227 0-2.105-.319-4.135-.896-6.054h.174c10.779 0 19.549-8.77 19.549-19.549v-54.219c0-10.778-8.77-19.548-19.549-19.548-1.888 0-129.893 0-131.027 0-10.779 0-19.549 8.77-19.549 19.548v54.218c0 10.779 8.77 19.549 19.549 19.549h.174c-.577 1.919-.896 3.949-.896 6.054 0 7.12 3.562 13.415 8.988 17.227v15.937h-6.76c-11.609 0-21.055 9.445-21.055 21.054 0 2.105.319 4.135.897 6.055h-87.931c-36.8 0-66.739 29.939-66.739 66.739v218.881c0 36.8 29.939 66.739 66.739 66.739h344.193c36.8 0 66.739-29.939 66.739-66.739v-91.94c0-4.142-3.357-7.5-7.5-7.5s-7.5 3.358-7.5 7.5v91.94c0 28.529-23.21 51.739-51.739 51.739h-344.193c-28.529 0-51.739-23.21-51.739-51.739v-218.881c0-28.529 23.21-51.739 51.739-51.739h344.193c28.529 0 51.739 23.21 51.739 51.739v91.94c0 4.142 3.357 7.5 7.5 7.5s7.5-3.358 7.5-7.5v-91.94c0-36.799-29.939-66.738-66.739-66.738zm-194.216-144.643h44.238v27.976c0 2.465-2.083 4.548-4.549 4.548h-35.14c-2.466 0-4.549-2.083-4.549-4.548zm-43.394 63.315c-2.466 0-4.549-2.083-4.549-4.549v-54.218c0-2.465 2.083-4.548 4.549-4.548h28.395v27.976c0 10.779 8.77 19.548 19.549 19.548h35.141c10.779 0 19.549-8.77 19.549-19.548v-27.976h28.395c2.466 0 4.549 2.083 4.549 4.548v54.218c0 2.466-2.083 4.549-4.549 4.549-14.894 0-116.128 0-131.029 0zm20.332 27.109c-3.218 0-6.055-2.624-6.055-6.055 0-3.338 2.716-6.054 6.055-6.054h90.363c3.339 0 6.055 2.716 6.055 6.054 0 3.449-2.855 6.055-6.055 6.055zm87.43 15v12.109h-84.496v-12.109zm21.759 39.219h-128.015c-3.339 0-6.055-2.716-6.055-6.055s2.716-6.054 6.055-6.054h128.016c3.339 0 6.055 2.716 6.055 6.054s-2.717 6.055-6.056 6.055z"></path></g></svg>