<!-- icon666.com - MILLIONS OF FREE VECTOR ICONS --><svg id="Capa_1" enable-background="new 0 0 512 512" viewBox="0 0 512 512" xmlns="http://www.w3.org/2000/svg"><g><g><path d="m96.735 342.184c0 55.26 28.818 105.641 77.088 134.771 1.168.705 2.505 1.078 3.869 1.078h159.338c1.418 0 2.805-.403 4.003-1.16 46.482-29.403 74.231-79.754 74.231-134.688 0-87.819-71.446-159.265-159.265-159.265s-159.264 71.444-159.264 159.264zm303.554 0c0 49.056-24.426 94.078-65.457 120.872h-155.03c-42.677-26.547-68.092-71.58-68.092-120.872 0-79.561 64.728-144.289 144.289-144.289 79.562 0 144.29 64.728 144.29 144.289z"></path><path d="m173.635 288.794v53.42c0 4.136 3.353 7.488 7.488 7.488h20.594c4.136 0 7.488-3.352 7.488-7.488s-3.353-7.488-7.488-7.488h-13.106v-38.444h134.778v38.444h-86.493c-4.136 0-7.488 3.352-7.488 7.488s3.353 7.488 7.488 7.488h93.981c4.136 0 7.488-3.352 7.488-7.488v-53.42c0-4.136-3.352-7.488-7.488-7.488h-149.754c-4.135 0-7.488 3.352-7.488 7.488z"></path><path d="m272.31 364.668h-32.62c-4.136 0-7.488 3.352-7.488 7.488s3.353 7.488 7.488 7.488h32.62c4.136 0 7.488-3.352 7.488-7.488s-3.352-7.488-7.488-7.488z"></path><path d="m428.723 245.426c-16.272-28.722-39.68-53.159-67.692-70.673-3.504-2.193-8.126-1.128-10.319 2.38-2.193 3.506-1.127 8.127 2.38 10.318 25.906 16.196 47.552 38.796 62.6 65.356 15.513 27.381 23.713 58.593 23.713 90.262 0 62.545-31.244 119.935-83.685 153.954h-196.106c-54.531-33.703-87.021-91.102-87.021-153.954 0-87.257 62.021-162.906 147.473-179.879 3.505-.696 6.029-3.771 6.029-7.345v-31.02h6.727c3.167 9.779 12.357 16.871 23.177 16.871s20.01-7.093 23.177-16.871h6.727v31.02c0 3.573 2.524 6.649 6.029 7.345 10.747 2.135 21.357 5.26 31.534 9.289 3.845 1.521 8.197-.36 9.719-4.206 1.522-3.845-.361-8.197-4.206-9.719-9.108-3.605-18.534-6.541-28.1-8.756v-24.972h6.399c4.136 0 7.488-3.352 7.488-7.488s-3.352-7.488-7.488-7.488h-6.399v-38.844h10.894c8.118 0 14.722-6.604 14.722-14.721v-41.563c0-8.118-6.604-14.722-14.722-14.722h-111.547c-8.117 0-14.721 6.604-14.721 14.722v41.564c0 8.117 6.604 14.721 14.721 14.721h10.894v38.844h-6.399c-4.135 0-7.488 3.352-7.488 7.488s3.353 7.488 7.488 7.488h6.399v24.973c-42.002 9.733-80.11 33.242-107.846 66.658-29.442 35.472-45.656 80.437-45.656 126.612 0 68.82 35.896 131.569 96.022 167.853 1.168.705 2.505 1.077 3.869 1.077h200.405c1.418 0 2.805-.403 4.003-1.16 57.899-36.625 92.465-99.343 92.465-167.77 0-34.251-8.872-68.017-25.659-97.644zm-172.723-118.704c-5.174 0-9.383-4.209-9.383-9.383 0-5.173 4.209-9.382 9.383-9.382s9.383 4.209 9.383 9.382c0 5.174-4.209 9.383-9.383 9.383zm29.904-16.872h-6.727c-3.167-9.778-12.357-16.87-23.177-16.87s-20.009 7.092-23.177 16.87h-6.727v-38.844h59.807v38.844zm-85.423-53.82v-41.054h111.037v41.054z"></path></g></g></svg>