<!-- icon666.com - MILLIONS OF FREE VECTOR ICONS --><svg id="Capa_1" enable-background="new 0 0 512 512" viewBox="0 0 512 512" xmlns="http://www.w3.org/2000/svg"><g><g><path d="m430.704 211.856-62.351-62.35c-9-9-20.97-13.956-33.703-13.956h-3.378v-5.808c0-14.343-9.531-26.497-22.591-30.472v-59.39c0-21.99-17.89-39.88-39.88-39.88h-25.604c-21.99 0-39.88 17.89-39.88 39.88v59.402c-13.104 3.996-22.591 16.244-22.591 30.461v5.808h-3.378c-12.745 0-24.716 4.958-33.703 13.956l-62.351 62.352c-8.875 8.876-13.966 21.164-13.966 33.713v98.37c0 4.143 3.357 7.5 7.5 7.5s7.5-3.357 7.5-7.5v-98.37c0-8.601 3.489-17.022 9.573-23.106l62.354-62.354c6.156-6.165 14.357-9.56 23.093-9.56.15 0 157.556 0 157.301 0 8.727 0 16.93 3.396 23.096 9.563l62.351 62.35c6.084 6.085 9.573 14.507 9.573 23.107v156.41c0 8.594-3.489 17.012-9.573 23.096l-62.35 62.351c-6.174 6.172-14.376 9.571-23.096 9.571h-157.3c-8.727 0-16.929-3.398-23.096-9.573l-62.351-62.35c-6.084-6.085-9.573-14.503-9.573-23.097v-23.04c0-4.142-3.357-7.5-7.5-7.5s-7.5 3.358-7.5 7.5v23.04c0 12.542 5.091 24.826 13.966 33.703l62.348 62.347c8.998 9.009 20.968 13.97 33.706 13.97h157.3c12.727 0 24.695-4.96 33.703-13.966l62.351-62.352c8.875-8.876 13.966-21.16 13.966-33.702v-156.41c0-12.549-5.091-24.836-13.966-33.714zm-187.506-196.856h25.604c13.719 0 24.88 11.161 24.88 24.88v58.015c-91.709.015-49.98-.019-75.363-.006v-58.009c-.001-13.719 11.161-24.88 24.879-24.88zm-47.471 114.742c0-8.428 6.375-16.067 15.733-16.806.7-.074 21.521-.025 87.965-.043 9.29 0 16.848 7.559 16.848 16.849v5.804h-120.546z"></path><path d="m268.43 173.2h-81.63c-7.247 0-14.354 2.941-19.504 8.076l-53.066 53.067c-5.204 5.219-8.069 12.143-8.069 19.496v139.861c0 7.261 2.943 14.369 8.076 19.504l53.06 53.06c5.14 5.139 12.248 8.086 19.504 8.086h138.4c7.256 0 14.364-2.947 19.504-8.086l53.06-53.061c5.133-5.134 8.076-12.242 8.076-19.503v-139.86c0-7.354-2.865-14.277-8.076-19.504l-53.067-53.066c-5.143-5.128-12.249-8.069-19.496-8.069h-21.772c-4.143 0-7.5 3.357-7.5 7.5s3.357 7.5 7.5 7.5h21.77c3.307 0 6.552 1.346 8.897 3.684l53.053 53.052c2.38 2.387 3.69 5.549 3.69 8.904v139.859c0 3.312-1.343 6.556-3.684 8.897l-53.06 53.06c-2.347 2.348-5.589 3.693-8.897 3.693h-138.399c-3.308 0-6.55-1.346-8.896-3.693l-53.06-53.059c-2.341-2.342-3.684-5.585-3.684-8.897v-139.861c0-3.355 1.311-6.518 3.684-8.896l53.052-53.053c2.353-2.345 5.598-3.69 8.904-3.69h81.63c4.143 0 7.5-3.357 7.5-7.5s-3.358-7.501-7.5-7.501z"></path><path d="m256 82.772c12.44 0 22.56-10.121 22.56-22.561v-7.53c0-12.439-10.121-22.56-22.56-22.56s-22.561 10.121-22.561 22.56v7.53c0 12.44 10.122 22.561 22.561 22.561zm-7.561-30.09c0-4.169 3.392-7.56 7.561-7.56s7.56 3.392 7.56 7.56v7.53c0 4.169-3.392 7.561-7.56 7.561-4.169 0-7.561-3.392-7.561-7.561z"></path><path d="m172.906 319.265c0 4.143 3.357 7.5 7.5 7.5s7.5-3.357 7.5-7.5c0-3.482 2.838-6.315 6.325-6.315 3.482 0 6.316 2.833 6.316 6.315 0 4.143 3.357 7.5 7.5 7.5s7.5-3.357 7.5-7.5c0-11.753-9.562-21.315-21.316-21.315-11.758-.001-21.325 9.562-21.325 21.315z"></path><path d="m311.453 319.265c0-3.482 2.833-6.315 6.315-6.315 3.487 0 6.325 2.833 6.325 6.315 0 4.143 3.357 7.5 7.5 7.5 4.142 0 7.5-3.357 7.5-7.5 0-11.753-9.566-21.315-21.325-21.315-11.753 0-21.315 9.562-21.315 21.315 0 4.143 3.357 7.5 7.5 7.5s7.5-3.358 7.5-7.5z"></path><path d="m265.007 330.49c-4.749 5.443-13.199 5.521-18.014 0-2.724-3.122-7.462-3.444-10.582-.723-3.122 2.724-3.445 7.461-.723 10.582 10.735 12.305 29.858 12.343 40.623 0 2.723-3.121 2.399-7.859-.723-10.582-3.12-2.721-7.857-2.399-10.581.723z"></path></g></g></svg>