<?xml version="1.0" standalone="no"?>
<!DOCTYPE svg PUBLIC "-//W3C//DTD SVG 20010904//EN"
 "http://www.w3.org/TR/2001/REC-SVG-20010904/DTD/svg10.dtd">
<svg version="1.0" xmlns="http://www.w3.org/2000/svg"
 width="512.000000pt" height="512.000000pt" viewBox="0 0 512.000000 512.000000"
 preserveAspectRatio="xMidYMid meet">
<metadata>
Created by potrace 1.16, written by Peter Selinger 2001-2019
</metadata>
<g transform="translate(0.000000,512.000000) scale(0.100000,-0.100000)"
fill="#000000" stroke="none">
<path d="M2545 4874 c-357 -53 -628 -183 -833 -398 -67 -71 -128 -153 -120
-162 2 -2 71 46 154 107 207 154 297 211 427 274 186 90 340 125 550 125 271
0 518 -77 624 -194 35 -38 35 -40 31 -105 -6 -80 -36 -153 -73 -177 -21 -14
-60 -20 -169 -26 -77 -5 -175 -16 -216 -26 l-75 -18 156 4 c167 5 274 -9 362
-47 37 -16 47 -27 66 -72 12 -30 25 -72 28 -95 l5 -41 -85 -6 c-110 -9 -221
-30 -320 -62 -84 -27 -220 -85 -214 -91 2 -2 26 3 53 11 157 48 572 63 819 31
232 -31 474 -102 683 -201 62 -30 110 -50 107 -44 -10 15 -202 126 -303 175
-185 90 -399 155 -581 176 l-100 12 -17 45 c-9 25 -29 66 -44 91 -14 25 -32
60 -38 79 -16 46 -15 141 3 226 21 98 19 125 -14 176 -52 83 -189 164 -350
206 -84 23 -120 26 -291 28 -107 2 -208 1 -225 -1z"/>
<path d="M2810 4635 c-174 -28 -443 -141 -625 -263 -98 -65 -174 -125 -286
-226 -31 -28 -75 -61 -97 -73 l-41 -23 11 33 c17 51 62 110 115 152 26 21 52
42 56 45 19 16 -164 -19 -190 -36 -21 -13 -23 -22 -23 -109 l0 -94 -30 -16
c-16 -8 -31 -15 -35 -15 -15 0 -3 141 19 203 l23 67 -24 0 c-37 0 -80 -27 -87
-53 -3 -13 1 -62 9 -108 24 -133 24 -131 -52 -184 -38 -26 -147 -128 -243
-226 l-175 -177 -130 -65 c-162 -80 -318 -142 -339 -134 -70 27 91 194 289
299 81 43 81 46 0 18 -183 -63 -371 -242 -449 -427 -38 -90 -76 -230 -75 -272
1 -37 3 -33 14 32 11 69 96 143 269 236 l79 42 -37 -42 c-106 -116 -156 -234
-162 -379 l-3 -95 13 75 c24 130 76 242 168 365 62 82 102 113 279 219 333
201 654 341 961 420 130 33 220 50 440 80 67 10 153 31 225 56 120 41 252 70
327 70 32 1 37 3 24 11 -23 13 -278 -4 -446 -30 -166 -26 -302 -62 -618 -164
-142 -46 -272 -87 -289 -90 -67 -15 85 54 220 99 77 26 201 73 275 104 121 51
232 91 455 160 39 11 80 29 93 38 22 17 18 17 -80 10 -125 -9 -222 -30 -352
-75 -125 -43 -206 -84 -254 -128 -28 -25 -61 -40 -131 -60 -125 -35 -206 -66
-309 -119 l-87 -45 75 71 c41 38 158 125 260 193 187 124 232 162 304 250 78
94 363 259 551 318 130 41 200 51 365 51 175 1 149 13 -45 21 -79 3 -149 0
-205 -10z"/>
<path d="M2315 3670 c-532 -59 -956 -190 -1236 -381 -105 -72 -269 -225 -334
-311 -25 -33 -44 -62 -42 -64 6 -6 144 41 237 81 103 44 204 101 361 206 154
101 295 176 443 234 111 43 326 104 426 120 81 13 38 -2 -72 -25 -106 -22
-106 -22 -150 -74 -107 -123 -172 -239 -206 -366 -24 -91 -33 -140 -26 -140 3
0 35 26 71 58 62 53 194 213 342 414 60 82 87 107 61 59 -6 -12 -8 -27 -4 -33
4 -6 3 -8 -4 -4 -6 3 -21 -11 -33 -31 -47 -76 -243 -330 -297 -385 -30 -31
-83 -76 -118 -99 -43 -29 -60 -47 -57 -58 4 -13 3 -13 -5 -2 -8 11 -23 5 -79
-28 -206 -122 -486 -189 -835 -198 -109 -3 -198 -9 -198 -14 0 -16 84 -79 148
-109 167 -80 584 -201 779 -226 l52 -6 4 33 c38 263 47 284 171 401 52 48 119
121 149 161 56 74 173 274 166 282 -3 2 -26 -35 -53 -83 -132 -235 -291 -394
-573 -571 -46 -28 -83 -49 -83 -47 0 3 48 38 108 79 59 41 124 88 144 105 78
62 272 280 336 377 119 182 155 235 159 232 5 -6 -21 -67 -30 -67 -4 0 -5 -4
-2 -10 9 -15 -50 -207 -114 -365 -32 -80 -56 -145 -55 -145 2 0 19 30 38 68
43 82 47 75 7 -12 -34 -76 -99 -178 -166 -261 l-48 -60 62 60 c151 146 244
307 305 530 19 72 47 164 61 205 l25 75 -5 -50 c-2 -27 -10 -97 -16 -155 -6
-58 -9 -132 -6 -164 3 -38 2 -54 -4 -45 -7 12 -9 12 -9 -1 -1 -32 -70 -183
-116 -252 -67 -101 -166 -202 -317 -326 -137 -111 -169 -151 -191 -235 -8 -28
-18 -61 -22 -71 -8 -22 -14 -24 88 41 97 62 181 132 228 189 41 49 117 190
108 199 -2 3 -25 -26 -51 -63 -74 -108 -286 -326 -302 -310 -11 10 24 111 46
135 13 14 80 71 149 127 69 57 131 110 139 119 7 9 18 14 24 10 5 -3 7 -1 4 4
-4 6 1 17 10 24 35 30 132 160 157 213 15 31 33 81 41 113 l15 58 -4 -70 c-2
-38 2 -119 8 -180 12 -105 8 -286 -8 -390 -6 -35 -5 -37 5 -15 6 14 14 79 18
145 l8 120 1 -104 c2 -115 -23 -243 -40 -205 -7 15 -7 14 -3 -6 6 -32 -49
-143 -116 -232 -29 -39 -85 -95 -131 -130 -136 -106 -164 -137 -63 -70 94 62
198 162 254 245 85 125 151 314 151 434 0 69 -17 166 -46 261 -27 91 -28 138
-1 57 10 -27 44 -92 76 -143 65 -102 77 -143 66 -230 -23 -205 -151 -411 -338
-547 l-27 -20 94 0 95 0 213 -107 c211 -106 279 -133 412 -163 72 -17 118 -36
150 -64 19 -16 19 -16 0 17 -27 46 -48 58 -176 92 -153 42 -248 82 -405 169
-73 40 -133 74 -133 76 0 2 26 18 57 35 138 78 219 161 244 248 30 109 -23
275 -117 361 -27 26 -43 48 -40 57 8 22 23 17 100 -30 209 -131 360 -147 537
-59 l76 38 -9 -30 c-15 -49 -40 -523 -34 -624 11 -168 31 -223 126 -341 45
-56 68 -98 94 -170 79 -213 124 -398 135 -553 5 -61 7 -113 6 -115 -1 -2 -14
16 -28 40 -40 69 -200 276 -272 353 -60 64 -52 50 101 -175 158 -234 229 -358
244 -425 l7 -30 14 45 c10 32 14 98 14 225 0 215 -12 270 -110 521 -67 170
-117 335 -136 448 -16 96 -7 267 19 336 43 115 120 278 172 360 134 213 162
279 162 385 1 81 -26 167 -103 332 -27 58 -49 108 -48 112 0 3 22 -38 50 -91
27 -54 51 -98 53 -98 3 0 -9 30 -26 68 -17 37 -57 137 -90 222 -33 85 -80 193
-105 240 -44 83 -44 84 -14 56 34 -33 108 -170 146 -271 37 -99 132 -281 141
-272 6 6 -40 132 -95 261 -44 104 -91 191 -148 276 -11 16 -1 11 26 -15 60
-57 103 -132 161 -283 27 -72 76 -193 109 -269 80 -187 117 -309 132 -431 11
-89 11 -121 -5 -250 -9 -81 -28 -207 -42 -281 -14 -73 -23 -135 -21 -138 5 -4
64 261 77 347 15 96 12 317 -4 404 -18 89 -67 239 -106 316 -15 30 -58 138
-95 240 -59 162 -139 329 -166 346 -5 3 -9 9 -9 14 0 5 19 3 42 -6 96 -34 24
23 -79 62 -83 31 -255 68 -423 89 -147 19 -471 27 -585 15z m655 -95 c52 -9
114 -25 138 -37 43 -20 84 -70 97 -118 6 -22 1 -19 -32 16 -51 55 -98 69 -194
58 -65 -8 -75 -12 -89 -36 -11 -21 -12 -30 -3 -39 9 -9 32 -6 96 15 104 32
125 32 167 4 48 -33 68 -66 75 -124 6 -49 5 -52 -18 -56 -20 -4 -23 -1 -19 15
4 16 1 18 -16 13 -14 -5 -28 1 -46 19 -17 17 -35 25 -58 24 l-33 -1 38 -8 c57
-11 54 -17 -15 -24 -64 -8 -140 -35 -152 -55 -10 -15 -1 -14 33 4 27 14 29 13
36 -8 l8 -22 4 23 c2 12 11 22 20 22 9 0 13 -6 10 -14 -7 -19 12 -36 41 -36
15 0 26 7 29 20 6 22 18 26 29 8 13 -21 -28 -39 -81 -35 -27 2 -59 7 -70 11
-11 4 -6 -2 12 -14 43 -29 128 -37 168 -16 17 9 26 16 20 16 -5 1 2 8 18 16
15 8 27 19 27 25 0 6 5 9 12 7 16 -6 37 -116 37 -199 1 -46 -8 -97 -29 -168
-17 -55 -39 -140 -50 -188 -25 -103 -43 -135 -116 -202 -105 -96 -246 -141
-385 -121 -112 16 -216 72 -331 179 -72 66 -81 82 -112 210 -29 117 -34 126
-61 126 -15 0 -20 7 -20 25 0 15 5 24 13 22 9 -2 12 4 8 15 -13 42 -26 129
-26 177 0 77 36 292 62 371 l23 70 60 8 c226 29 503 30 675 2z m308 -170 c-3
-3 -9 2 -12 12 -6 14 -5 15 5 6 7 -7 10 -15 7 -18z m41 -90 c0 -5 -8 6 -19 25
-11 19 -19 40 -19 45 0 6 8 -6 19 -25 11 -19 19 -39 19 -45z m-1152 43 c-3 -8
-6 -5 -6 6 -1 11 2 17 5 13 3 -3 4 -12 1 -19z m-10 -70 c-3 -7 -5 -2 -5 12 0
14 2 19 5 13 2 -7 2 -19 0 -25z m1207 -88 c3 -14 -2 -7 -13 15 -10 22 -21 51
-25 65 -3 14 2 7 13 -15 10 -22 21 -51 25 -65z m-57 38 c-3 -8 -6 -5 -6 6 -1
11 2 17 5 13 3 -3 4 -12 1 -19z m10 -60 c-3 -7 -5 -2 -5 12 0 14 2 19 5 13 2
-7 2 -19 0 -25z m73 -43 c0 -5 -5 -3 -10 5 -5 8 -10 20 -10 25 0 6 5 3 10 -5
5 -8 10 -19 10 -25z m-40 -312 c0 -106 -5 -203 -10 -215 -6 -15 -9 54 -9 197
-1 121 -3 252 -6 290 l-4 70 14 -75 c10 -50 15 -139 15 -267z m-50 75 c0 -28
-30 -68 -51 -68 -16 0 -5 65 17 97 13 20 18 23 25 12 5 -8 9 -26 9 -41z m67
-45 c-3 -10 -5 -4 -5 12 0 17 2 24 5 18 2 -7 2 -21 0 -30z m-1703 -37 c-3 -15
-8 -25 -11 -23 -2 3 -1 17 3 31 3 15 8 25 11 23 2 -3 1 -17 -3 -31z m1714
-143 c-2 -61 -1 -110 2 -108 12 8 41 110 49 176 l8 64 1 -55 c2 -100 -22 -164
-153 -410 -25 -46 -45 -89 -45 -95 0 -5 6 -1 12 10 6 11 49 78 95 148 47 71
95 156 109 190 l25 62 -6 -45 c-7 -54 -51 -143 -131 -265 -70 -107 -125 -231
-161 -363 -24 -86 -27 -115 -27 -252 0 -158 4 -178 59 -345 6 -16 5 -17 -4 -5
-6 8 -25 58 -43 110 -31 92 -32 101 -32 260 0 263 33 405 151 648 70 146 82
194 84 337 1 50 4 81 6 70 3 -11 3 -70 1 -132z m-1731 75 c-3 -8 -6 -5 -6 6
-1 11 2 17 5 13 3 -3 4 -12 1 -19z m1840 -70 c-3 -8 -6 -5 -6 6 -1 11 2 17 5
13 3 -3 4 -12 1 -19z m-1057 -373 c82 -165 52 -292 -94 -402 -73 -54 -164
-108 -172 -101 -2 3 24 27 58 54 167 129 220 203 219 303 0 70 -20 128 -71
207 -22 33 -40 65 -40 70 1 19 71 -73 100 -131z"/>
<path d="M2328 3490 c-21 -17 -47 -45 -59 -63 l-22 -32 29 26 c66 60 98 62
241 18 100 -32 133 -33 133 -5 0 36 -35 56 -120 71 -129 23 -159 20 -202 -15z"/>
<path d="M2463 3343 c9 -2 23 -2 30 0 6 3 -1 5 -18 5 -16 0 -22 -2 -12 -5z"/>
<path d="M2398 3333 c7 -3 16 -2 19 1 4 3 -2 6 -13 5 -11 0 -14 -3 -6 -6z"/>
<path d="M2988 3323 c7 -3 16 -2 19 1 4 3 -2 6 -13 5 -11 0 -14 -3 -6 -6z"/>
<path d="M2595 3300 c10 -11 20 -20 23 -20 3 0 -3 9 -13 20 -10 11 -20 20 -23
20 -3 0 3 -9 13 -20z"/>
<path d="M2939 3293 l-24 -28 28 24 c25 23 32 31 24 31 -2 0 -14 -12 -28 -27z"/>
<path d="M2339 3297 c21 -21 11 -30 -25 -24 -36 6 -36 6 -19 -13 17 -19 17
-20 -1 -20 -23 -1 51 -40 75 -40 13 0 13 -2 3 -9 -46 -29 123 -16 174 14 16 9
20 14 9 10 -53 -16 -103 -17 -134 0 -31 15 -32 17 -14 30 16 12 19 11 27 -5
18 -40 86 -31 86 10 0 24 -1 24 43 5 59 -25 65 -17 13 17 -45 30 -54 32 -148
33 -69 2 -96 -1 -89 -8z m171 -31 c0 -3 -4 -8 -10 -11 -5 -3 -10 -1 -10 4 0 6
5 11 10 11 6 0 10 -2 10 -4z"/>
<path d="M2672 2929 c-19 -30 -8 -34 12 -4 9 14 13 25 9 25 -5 0 -14 -9 -21
-21z"/>
<path d="M2695 2910 c-10 -17 14 -40 42 -40 36 0 29 44 -9 48 -14 2 -29 -2
-33 -8z"/>
<path d="M2820 2905 c-6 -8 -10 -19 -8 -24 4 -13 50 9 56 27 5 17 -33 15 -48
-3z"/>
<path d="M2625 2740 c-33 -22 -66 -40 -72 -40 -29 0 2 -32 74 -76 50 -30 164
-43 229 -25 38 10 136 84 124 93 -3 3 -34 24 -70 47 -52 34 -70 41 -95 37 -35
-7 -37 -7 -90 0 -35 4 -48 0 -100 -36z m177 -63 c-36 -7 -62 -7 -85 1 -27 8
-20 10 53 10 l85 -1 -53 -10z"/>
<path d="M4360 3565 c-180 -29 -386 -120 -677 -298 -119 -74 -140 -90 -136
-107 5 -19 14 -16 117 40 296 162 423 207 547 197 77 -7 116 -23 152 -67 45
-53 48 -149 8 -228 -38 -74 -181 -189 -389 -312 -40 -23 -71 -44 -69 -47 5 -5
203 102 282 152 219 140 375 306 426 452 62 182 -27 257 -261 218z"/>
<path d="M4036 3190 c-56 -74 -155 -161 -262 -231 -52 -34 -92 -64 -90 -67 8
-7 119 57 190 110 67 50 163 156 192 211 21 40 13 33 -30 -23z"/>
<path d="M3540 2820 c69 -138 100 -234 100 -312 0 -81 -14 -133 -88 -320 -64
-162 -82 -231 -106 -423 -30 -225 -21 -221 29 14 42 197 62 262 133 422 64
146 85 219 84 294 -1 79 -27 146 -112 290 -39 64 -70 121 -70 126 0 5 -5 9
-10 9 -6 0 12 -45 40 -100z"/>
<path d="M3566 2843 c10 -16 33 -53 51 -83 47 -80 56 -91 32 -41 -23 48 -89
151 -97 151 -2 0 4 -12 14 -27z"/>
<path d="M2098 2575 c-4 -33 -17 -92 -29 -130 -26 -84 -190 -404 -232 -452
-37 -41 -94 -71 -297 -153 -458 -184 -544 -281 -576 -650 -7 -91 -13 -183 -12
-205 1 -45 0 -54 24 150 20 178 30 217 76 313 71 149 169 227 428 337 74 32
176 78 225 102 90 45 90 45 61 14 -17 -17 -102 -79 -190 -138 -121 -80 -185
-130 -256 -202 -135 -137 -181 -241 -179 -406 l2 -80 8 75 c28 247 122 367
489 632 146 106 266 213 296 264 14 24 41 90 59 146 36 112 104 297 105 286 1
-23 -33 -169 -60 -253 -69 -214 -116 -276 -325 -425 -196 -139 -293 -253 -340
-403 -33 -102 -35 -256 -5 -371 23 -89 95 -234 145 -291 34 -38 34 -37 -9 31
-95 150 -129 259 -130 419 0 92 3 119 22 162 21 51 72 136 78 131 1 -2 -2 -28
-8 -58 -6 -30 -8 -116 -5 -190 4 -111 9 -150 32 -220 55 -170 156 -329 304
-480 72 -73 78 -78 28 -22 -307 342 -381 582 -276 897 46 137 95 210 254 375
118 122 153 171 205 283 81 176 116 350 101 502 l-6 70 -7 -60z"/>
<path d="M1631 2543 c-24 -47 -38 -98 -55 -191 -20 -111 -1 -73 39 77 19 73
38 137 41 142 3 5 3 9 0 9 -3 0 -14 -17 -25 -37z"/>
<path d="M3702 2410 c-6 -32 -36 -122 -67 -199 -52 -133 -84 -240 -134 -461
-34 -153 -44 -255 -38 -390 10 -192 32 -256 187 -535 58 -103 101 -195 121
-259 29 -90 31 -102 20 -148 -6 -28 -23 -73 -36 -101 -14 -27 -24 -51 -22 -53
2 -2 26 12 54 31 113 76 165 174 164 310 0 134 -31 214 -166 430 -82 131 -109
186 -133 270 -40 136 -38 137 43 25 77 -107 147 -237 160 -300 16 -76 26 -65
21 25 -6 115 -31 187 -134 385 -94 180 -130 288 -139 409 -8 115 8 200 64 341
37 93 46 131 51 198 2 45 2 82 -1 82 -2 0 -10 -27 -15 -60z m-107 -732 c9 -35
53 -133 97 -218 45 -85 92 -175 104 -200 26 -54 56 -141 51 -147 -3 -2 -13 20
-23 49 -11 29 -55 107 -98 173 -145 219 -196 369 -169 496 7 31 8 29 15 -28 3
-35 14 -91 23 -125z m20 -393 c25 -68 45 -105 187 -337 89 -145 113 -216 113
-338 0 -74 -4 -102 -18 -125 -10 -16 -15 -21 -11 -10 3 11 9 54 11 97 6 80 -6
150 -39 228 -18 43 -199 322 -205 316 -2 -2 28 -66 67 -142 100 -197 133 -352
96 -453 l-12 -34 -12 64 c-11 63 -42 130 -176 385 -80 153 -91 205 -83 403 9
199 16 218 38 105 10 -49 30 -121 44 -159z"/>
<path d="M1473 2147 c-48 -50 -103 -150 -117 -211 -6 -26 -5 -28 8 -17 8 7 20
29 27 49 20 63 60 135 101 185 52 62 43 60 -19 -6z"/>
<path d="M1769 2098 c-118 -94 -201 -140 -344 -193 -55 -20 -151 -61 -213 -91
-89 -44 -126 -69 -180 -122 -38 -37 -81 -88 -95 -113 -38 -64 -67 -188 -66
-273 l2 -71 8 61 c10 81 26 138 55 200 70 149 185 228 532 368 176 71 285 123
322 155 16 14 6 11 -29 -10 l-55 -31 39 49 c21 26 61 72 89 101 28 28 48 52
45 52 -3 0 -53 -37 -110 -82z"/>
<path d="M3386 2085 c-42 -98 -76 -222 -76 -274 1 -27 7 -14 25 54 13 50 40
137 59 194 20 58 34 106 32 108 -2 2 -20 -35 -40 -82z"/>
<path d="M3439 2019 c-62 -125 -99 -235 -109 -331 -10 -100 0 -251 24 -353 8
-33 13 -61 12 -63 -10 -9 -79 150 -98 224 -20 77 -23 115 -23 291 0 226 -13
233 -22 11 -6 -146 10 -278 49 -408 10 -36 70 -171 133 -300 63 -129 128 -276
145 -327 53 -160 58 -291 15 -412 -23 -67 -7 -47 38 46 38 80 42 95 45 184 6
130 -19 211 -110 367 -77 131 -98 183 -134 321 -69 269 -52 512 52 746 34 79
23 81 -17 4z"/>
<path d="M2915 1831 c-24 -125 -18 -286 14 -358 22 -50 43 -71 86 -87 17 -6
16 -3 -6 21 -64 67 -84 168 -77 376 3 75 4 137 3 137 -1 0 -10 -40 -20 -89z"/>
<path d="M3690 1754 c30 -26 90 -83 132 -126 164 -167 210 -353 144 -573 -9
-27 -14 -51 -11 -53 7 -7 52 152 59 209 23 186 -76 372 -278 522 -94 71 -114
80 -46 21z"/>
<path d="M1393 1536 c-46 -52 -86 -131 -109 -213 -19 -69 -29 -270 -16 -333 8
-35 9 -24 4 50 -8 159 41 345 128 479 22 34 38 61 36 61 -3 0 -22 -20 -43 -44z"/>
<path d="M1564 1185 c5 -141 31 -233 108 -384 81 -157 123 -221 213 -328 94
-113 121 -136 52 -45 -83 108 -167 244 -167 268 0 4 33 -24 73 -62 91 -88 190
-167 298 -237 90 -59 219 -132 219 -124 0 2 -40 39 -90 81 -96 82 -252 254
-411 454 -156 194 -219 294 -276 437 l-24 60 5 -120z"/>
<path d="M1966 999 c23 -24 86 -107 139 -183 187 -270 298 -385 443 -459 95
-49 229 -94 307 -102 43 -5 32 1 -72 39 -67 24 -127 47 -132 51 -6 3 -29 33
-52 66 -116 171 -308 363 -529 527 -154 114 -151 112 -104 61z"/>
<path d="M3890 946 c0 -2 8 -10 18 -17 15 -13 16 -12 3 4 -13 16 -21 21 -21
13z"/>
<path d="M3965 839 c64 -103 80 -157 80 -264 0 -106 -17 -146 -99 -234 -56
-61 -21 -43 48 25 61 59 81 113 80 214 -1 101 -22 162 -90 257 -62 87 -72 88
-19 2z"/>
<path d="M1015 774 c-27 -25 -78 -59 -111 -75 -109 -54 -243 -38 -335 38 l-44
37 35 -38 c83 -88 247 -131 341 -88 58 26 119 80 147 131 13 22 22 41 20 41
-2 -1 -25 -21 -53 -46z"/>
<path d="M1550 686 c0 -2 8 -10 18 -17 15 -13 16 -12 3 4 -13 16 -21 21 -21
13z"/>
</g>
</svg>